<svg
    xmlns="http://www.w3.org/2000/svg"
    imageRendering="optimizeQuality"
    shapeRendering="geometricPrecision"
    textRendering="geometricPrecision"
    viewBox="0 0 595.3 699.4"
>
    <path
    fillRule="evenodd"
    d="M246.6 0h102v190.8C429.4 168.4 489 94.1 489 6.4h106.3c0 146.5-106.8 268.9-246.6 293.2v4.4h233.9v104.2H368.2c130 31.8 227 149.5 227 289.1H489c0-87.7-59.6-162-140.3-184.4v186.5h-102V512.9c-80.7 22.4-140.3 96.7-140.3 184.4H0C0 557.7 97 440 227 408.2H12.8V304h233.9v-4.4C106.8 275.3 0 152.9 0 6.4h106.3c0 87.7 59.6 162 140.3 184.4z"
    clipRule="evenodd"
    />
</svg>
